<svg width="48" height="53" viewBox="0 0 48 53" fill="none" xmlns="http://www.w3.org/2000/svg">
<g filter="url(#filter0_d_533_883)">
<path d="M45 26.5C45 39.4787 36.4787 50 23.5 50C10.5213 50 3 39.4787 3 26.5C3 13.5213 10.5213 3 23.5 3C36.4787 3 45 13.5213 45 26.5Z" fill="url(#paint0_radial_533_883)" shape-rendering="crispEdges"/>
<path d="M45 26.5C45 39.4787 36.4787 50 23.5 50C10.5213 50 3 39.4787 3 26.5C3 13.5213 10.5213 3 23.5 3C36.4787 3 45 13.5213 45 26.5Z" fill="url(#paint1_radial_533_883)" shape-rendering="crispEdges"/>
<path d="M44.5 26.5C44.5 39.2632 36.1456 49.5 23.5 49.5C17.1589 49.5 12.1759 46.9356 8.76893 42.7991C5.35383 38.6528 3.5 32.8971 3.5 26.5C3.5 20.1029 5.35383 14.3472 8.76893 10.2009C12.1759 6.06441 17.1589 3.5 23.5 3.5C36.1456 3.5 44.5 13.7368 44.5 26.5Z" stroke="#B3D7EF" shape-rendering="crispEdges"/>
</g>
<defs>
<filter id="filter0_d_533_883" x="0" y="0" width="48" height="53" filterUnits="userSpaceOnUse" color-interpolation-filters="sRGB">
<feFlood flood-opacity="0" result="BackgroundImageFix"/>
<feColorMatrix in="SourceAlpha" type="matrix" values="0 0 0 0 0 0 0 0 0 0 0 0 0 0 0 0 0 0 127 0" result="hardAlpha"/>
<feOffset/>
<feGaussianBlur stdDeviation="1.5"/>
<feComposite in2="hardAlpha" operator="out"/>
<feColorMatrix type="matrix" values="0 0 0 0 0.126511 0 0 0 0 0.375355 0 0 0 0 0.540286 0 0 0 0.6 0"/>
<feBlend mode="normal" in2="BackgroundImageFix" result="effect1_dropShadow_533_883"/>
<feBlend mode="normal" in="SourceGraphic" in2="effect1_dropShadow_533_883" result="shape"/>
</filter>
<radialGradient id="paint0_radial_533_883" cx="0" cy="0" r="1" gradientUnits="userSpaceOnUse" gradientTransform="translate(28.5 19) rotate(117.378) scale(31.5317 31.5317)">
<stop offset="0.405" stop-color="#74B0D5" stop-opacity="0.1"/>
<stop offset="1" stop-color="#74B0D5"/>
</radialGradient>
<radialGradient id="paint1_radial_533_883" cx="0" cy="0" r="1" gradientUnits="userSpaceOnUse" gradientTransform="translate(27 17.5) rotate(111.801) scale(18.8481 16.052)">
<stop offset="0.185" stop-color="#CEE9FC"/>
<stop offset="0.315" stop-color="#CEE9FC" stop-opacity="0"/>
</radialGradient>
</defs>
</svg>
