<svg width="59" height="70" viewBox="0 0 59 70" fill="none" xmlns="http://www.w3.org/2000/svg">
<circle cx="26.5" cy="26.5" r="23.5" fill="url(#paint0_radial_533_839)"/>
<circle cx="26.5" cy="26.5" r="23.5" fill="url(#paint1_radial_533_839)"/>
<path d="M56 51.5C56 60.0604 49.0604 67 40.5 67C31.9396 67 25 60.0604 25 51.5C25 42.9396 31.9396 36 40.5 36C49.0604 36 56 42.9396 56 51.5Z" fill="url(#paint2_radial_533_839)"/>
<path d="M56 51.5C56 60.0604 49.0604 67 40.5 67C31.9396 67 25 60.0604 25 51.5C25 42.9396 31.9396 36 40.5 36C49.0604 36 56 42.9396 56 51.5Z" fill="url(#paint3_radial_533_839)"/>
<g filter="url(#filter0_d_533_839)">
<mask id="path-3-inside-1_533_839" fill="white">
<path fill-rule="evenodd" clip-rule="evenodd" d="M47.2492 37.5426C49.0049 34.2505 50 30.4915 50 26.5C50 13.5213 39.4787 3 26.5 3C13.5213 3 3 13.5213 3 26.5C3 39.0005 12.7603 49.2213 25.0758 49.9576C25.0257 50.4649 25 50.9795 25 51.5C25 60.0604 31.9396 67 40.5 67C49.0604 67 56 60.0604 56 51.5C56 45.3588 52.4285 40.0517 47.2492 37.5426Z"/>
</mask>
<path d="M47.2492 37.5426L46.3668 37.0721L45.8776 37.9893L46.8132 38.4426L47.2492 37.5426ZM25.0758 49.9576L26.0709 50.0559L26.1731 49.0214L25.1355 48.9593L25.0758 49.9576ZM49 26.5C49 30.3234 48.0472 33.9213 46.3668 37.0721L48.1316 38.0132C49.9626 34.5798 51 30.6596 51 26.5H49ZM26.5 4C38.9264 4 49 14.0736 49 26.5H51C51 12.969 40.031 2 26.5 2V4ZM4 26.5C4 14.0736 14.0736 4 26.5 4V2C12.969 2 2 12.969 2 26.5H4ZM25.1355 48.9593C13.3449 48.2545 4 38.4682 4 26.5H2C2 39.5328 12.1756 50.1882 25.0161 50.9558L25.1355 48.9593ZM26 51.5C26 51.0123 26.024 50.5306 26.0709 50.0559L24.0806 49.8592C24.0273 50.3992 24 50.9466 24 51.5H26ZM40.5 66C32.4919 66 26 59.5081 26 51.5H24C24 60.6127 31.3873 68 40.5 68V66ZM55 51.5C55 59.5081 48.5081 66 40.5 66V68C49.6127 68 57 60.6127 57 51.5H55ZM46.8132 38.4426C51.6607 40.791 55 45.7565 55 51.5H57C57 44.9611 53.1962 39.3125 47.6852 36.6427L46.8132 38.4426Z" fill="#B3D7EF" mask="url(#path-3-inside-1_533_839)"/>
</g>
<defs>
<filter id="filter0_d_533_839" x="0" y="0" width="59" height="70" filterUnits="userSpaceOnUse" color-interpolation-filters="sRGB">
<feFlood flood-opacity="0" result="BackgroundImageFix"/>
<feColorMatrix in="SourceAlpha" type="matrix" values="0 0 0 0 0 0 0 0 0 0 0 0 0 0 0 0 0 0 127 0" result="hardAlpha"/>
<feOffset/>
<feGaussianBlur stdDeviation="1.5"/>
<feComposite in2="hardAlpha" operator="out"/>
<feColorMatrix type="matrix" values="0 0 0 0 0.126511 0 0 0 0 0.375355 0 0 0 0 0.540286 0 0 0 0.6 0"/>
<feBlend mode="normal" in2="BackgroundImageFix" result="effect1_dropShadow_533_839"/>
<feBlend mode="normal" in="SourceGraphic" in2="effect1_dropShadow_533_839" result="shape"/>
</filter>
<radialGradient id="paint0_radial_533_839" cx="0" cy="0" r="1" gradientUnits="userSpaceOnUse" gradientTransform="translate(31.5 19) rotate(110.556) scale(34.176)">
<stop offset="0.503261" stop-color="#74B0D5" stop-opacity="0.1"/>
<stop offset="0.793823" stop-color="#74B0D5"/>
<stop offset="1" stop-color="#74B0D5" stop-opacity="0.4"/>
</radialGradient>
<radialGradient id="paint1_radial_533_839" cx="0" cy="0" r="1" gradientUnits="userSpaceOnUse" gradientTransform="translate(30 17.5) rotate(111.801) scale(18.8481 19.6033)">
<stop offset="0.185" stop-color="#CEE9FC"/>
<stop offset="0.315" stop-color="#CEE9FC" stop-opacity="0"/>
</radialGradient>
<radialGradient id="paint2_radial_533_839" cx="0" cy="0" r="1" gradientUnits="userSpaceOnUse" gradientTransform="translate(36 39) rotate(77.9052) scale(28.6356)">
<stop stop-color="#74B0D5" stop-opacity="0"/>
<stop offset="0.466082" stop-color="#74B0D5" stop-opacity="0.1"/>
<stop offset="1" stop-color="#74B0D5"/>
</radialGradient>
<radialGradient id="paint3_radial_533_839" cx="0" cy="0" r="1" gradientUnits="userSpaceOnUse" gradientTransform="translate(46 46) rotate(104.036) scale(10.3078 10.7208)">
<stop stop-color="#CEE9FC"/>
<stop offset="0.33" stop-color="#CEE9FC" stop-opacity="0"/>
</radialGradient>
</defs>
</svg>
